<svg xmlns="http://www.w3.org/2000/svg" width="464" height="358" viewBox="0 0 464 358" font-family="sans-serif">
<rect width="464" height="358" fill="#f5f3ee"/>
<text x="48" y="30" font-size="16" font-weight="bold" fill="#241f1a">Velocity-slotted warehouse layout (engine output)</text>
<text x="48" y="48" font-size="11" fill="#6f6a60">Synthetic, seeded 60-slot facility - columns ordered near-dispatch first (left)</text>
<text x="48" y="66" font-size="11" fill="#544d43">A-movers pulled into the safety-yellow ringed slots nearest dispatch</text>
<rect x="66" y="72" width="386" height="230" rx="4" fill="#dcd8d0"/>
<rect x="68" y="76" width="9" height="222" rx="2" fill="#4a545c"/>
<rect x="68" y="88" width="9" height="18" fill="#e0a200" opacity="0.85"/>
<rect x="68" y="124" width="9" height="18" fill="#e0a200" opacity="0.85"/>
<rect x="68" y="160" width="9" height="18" fill="#e0a200" opacity="0.85"/>
<rect x="68" y="196" width="9" height="18" fill="#e0a200" opacity="0.85"/>
<rect x="68" y="232" width="9" height="18" fill="#e0a200" opacity="0.85"/>
<rect x="68" y="268" width="9" height="18" fill="#e0a200" opacity="0.85"/>
<text x="40" y="187" font-size="10" fill="#544d43" text-anchor="middle" letter-spacing="1" transform="rotate(-90 40 187)">DISPATCH</text>
<rect x="84" y="79" width="362" height="36" rx="2" fill="#8b939a"/>
<rect x="84" y="115" width="362" height="36" rx="2" fill="#8b939a"/>
<rect x="84" y="151" width="362" height="36" rx="2" fill="#8b939a"/>
<rect x="84" y="187" width="362" height="36" rx="2" fill="#8b939a"/>
<rect x="84" y="223" width="362" height="36" rx="2" fill="#8b939a"/>
<rect x="84" y="259" width="362" height="36" rx="2" fill="#8b939a"/>
<rect x="88" y="82" width="30" height="30" rx="2" fill="#6f4a1c"/>
<rect x="88" y="82" width="30" height="30" rx="2" fill="none" stroke="#e0a200" stroke-width="3"/>
<rect x="124" y="82" width="30" height="30" rx="2" fill="#6f4a1c"/>
<rect x="124" y="82" width="30" height="30" rx="2" fill="none" stroke="#e0a200" stroke-width="3"/>
<rect x="160" y="82" width="30" height="30" rx="2" fill="#6f4a1c"/>
<rect x="160" y="82" width="30" height="30" rx="2" fill="none" stroke="#e0a200" stroke-width="3"/>
<rect x="196" y="82" width="30" height="30" rx="2" fill="#6f4a1c"/>
<rect x="196" y="82" width="30" height="30" rx="2" fill="none" stroke="#e0a200" stroke-width="3"/>
<rect x="232" y="82" width="30" height="30" rx="2" fill="#6f4a1c"/>
<rect x="232" y="82" width="30" height="30" rx="2" fill="none" stroke="#e0a200" stroke-width="3"/>
<rect x="268" y="82" width="30" height="30" rx="2" fill="#6f4a1c"/>
<rect x="268" y="82" width="30" height="30" rx="2" fill="none" stroke="#e0a200" stroke-width="3"/>
<rect x="304" y="82" width="30" height="30" rx="2" fill="#6f4a1c"/>
<rect x="304" y="82" width="30" height="30" rx="2" fill="none" stroke="#e0a200" stroke-width="3"/>
<rect x="340" y="82" width="30" height="30" rx="2" fill="#6f4a1c"/>
<rect x="340" y="82" width="30" height="30" rx="2" fill="none" stroke="#e0a200" stroke-width="3"/>
<rect x="412" y="82" width="30" height="30" rx="2" fill="#6f4a1c"/>
<rect x="412" y="82" width="30" height="30" rx="2" fill="none" stroke="#e0a200" stroke-width="3"/>
<rect x="376" y="82" width="30" height="30" rx="2" fill="#6f4a1c"/>
<rect x="376" y="82" width="30" height="30" rx="2" fill="none" stroke="#e0a200" stroke-width="3"/>
<rect x="88" y="118" width="30" height="30" rx="2" fill="#6f4a1c"/>
<rect x="88" y="118" width="30" height="30" rx="2" fill="none" stroke="#e0a200" stroke-width="3"/>
<rect x="124" y="118" width="30" height="30" rx="2" fill="#6f4a1c"/>
<rect x="124" y="118" width="30" height="30" rx="2" fill="none" stroke="#e0a200" stroke-width="3"/>
<rect x="196" y="118" width="30" height="30" rx="2" fill="#6f4a1c"/>
<rect x="160" y="118" width="30" height="30" rx="2" fill="#6f4a1c"/>
<rect x="232" y="118" width="30" height="30" rx="2" fill="#6f4a1c"/>
<rect x="304" y="118" width="30" height="30" rx="2" fill="#a17840"/>
<rect x="268" y="118" width="30" height="30" rx="2" fill="#a17840"/>
<rect x="340" y="118" width="30" height="30" rx="2" fill="#a17840"/>
<rect x="412" y="118" width="30" height="30" rx="2" fill="#a17840"/>
<rect x="376" y="118" width="30" height="30" rx="2" fill="#a17840"/>
<rect x="88" y="154" width="30" height="30" rx="2" fill="#a17840"/>
<rect x="124" y="154" width="30" height="30" rx="2" fill="#a17840"/>
<rect x="196" y="154" width="30" height="30" rx="2" fill="#a17840"/>
<rect x="160" y="154" width="30" height="30" rx="2" fill="#a17840"/>
<rect x="232" y="154" width="30" height="30" rx="2" fill="#a17840"/>
<rect x="304" y="154" width="30" height="30" rx="2" fill="#a17840"/>
<rect x="268" y="154" width="30" height="30" rx="2" fill="#a17840"/>
<rect x="340" y="154" width="30" height="30" rx="2" fill="#a17840"/>
<rect x="412" y="154" width="30" height="30" rx="2" fill="#a17840"/>
<rect x="376" y="154" width="30" height="30" rx="2" fill="#a17840"/>
<rect x="88" y="190" width="30" height="30" rx="2" fill="#c4a271"/>
<rect x="124" y="190" width="30" height="30" rx="2" fill="#c4a271"/>
<rect x="196" y="190" width="30" height="30" rx="2" fill="#c4a271"/>
<rect x="160" y="190" width="30" height="30" rx="2" fill="#c4a271"/>
<rect x="232" y="190" width="30" height="30" rx="2" fill="#c4a271"/>
<rect x="304" y="190" width="30" height="30" rx="2" fill="#c4a271"/>
<rect x="268" y="190" width="30" height="30" rx="2" fill="#c4a271"/>
<rect x="340" y="190" width="30" height="30" rx="2" fill="#c4a271"/>
<rect x="412" y="190" width="30" height="30" rx="2" fill="#c4a271"/>
<rect x="376" y="190" width="30" height="30" rx="2" fill="#c4a271"/>
<rect x="88" y="226" width="30" height="30" rx="2" fill="#c4a271"/>
<rect x="124" y="226" width="30" height="30" rx="2" fill="#c4a271"/>
<rect x="196" y="226" width="30" height="30" rx="2" fill="#c4a271"/>
<rect x="160" y="226" width="30" height="30" rx="2" fill="#c4a271"/>
<rect x="232" y="226" width="30" height="30" rx="2" fill="#c4a271"/>
<rect x="304" y="226" width="30" height="30" rx="2" fill="#c4a271"/>
<rect x="268" y="226" width="30" height="30" rx="2" fill="#c4a271"/>
<rect x="340" y="226" width="30" height="30" rx="2" fill="#c4a271"/>
<rect x="412" y="226" width="30" height="30" rx="2" fill="#c4a271"/>
<rect x="376" y="226" width="30" height="30" rx="2" fill="#c4a271"/>
<rect x="88" y="262" width="30" height="30" rx="2" fill="#c4a271"/>
<rect x="124" y="262" width="30" height="30" rx="2" fill="#c4a271"/>
<rect x="196" y="262" width="30" height="30" rx="2" fill="#c4a271"/>
<rect x="160" y="262" width="30" height="30" rx="2" fill="#c4a271"/>
<rect x="232" y="262" width="30" height="30" rx="2" fill="#c4a271"/>
<rect x="304" y="262" width="30" height="30" rx="2" fill="#c4a271"/>
<rect x="268" y="262" width="30" height="30" rx="2" fill="#c4a271"/>
<rect x="340" y="262" width="30" height="30" rx="2" fill="#c4a271"/>
<rect x="412" y="262" width="30" height="30" rx="2" fill="#c4a271"/>
<rect x="376" y="262" width="30" height="30" rx="2" fill="#c4a271"/>
<text x="62" y="101" font-size="10" fill="#544d43" text-anchor="end">A1</text>
<text x="62" y="137" font-size="10" fill="#544d43" text-anchor="end">A2</text>
<text x="62" y="173" font-size="10" fill="#544d43" text-anchor="end">A3</text>
<text x="62" y="209" font-size="10" fill="#544d43" text-anchor="end">A4</text>
<text x="62" y="245" font-size="10" fill="#544d43" text-anchor="end">A5</text>
<text x="62" y="281" font-size="10" fill="#544d43" text-anchor="end">A6</text>
<rect x="48" y="318" width="14" height="14" rx="2" fill="#6f4a1c"/>
<text x="68" y="329" font-size="10" fill="#544d43">A (fast)</text>
<rect x="148" y="318" width="14" height="14" rx="2" fill="#a17840"/>
<text x="168" y="329" font-size="10" fill="#544d43">B (medium)</text>
<rect x="264" y="318" width="14" height="14" rx="2" fill="#c4a271"/>
<text x="284" y="329" font-size="10" fill="#544d43">C (slow)</text>
<rect x="48" y="340" width="14" height="14" rx="2" fill="none" stroke="#e0a200" stroke-width="3"/>
<text x="68" y="351" font-size="10" fill="#544d43">golden zone - the nearest 20% of slots to dispatch</text>
</svg>
